# xmcd
# 
# Track frame offsets:
#     150
#     24235
#     50812
#     67387
#     83097
#     105190
#     129107
#     157615
#     185317
#     202335
#     223460
#     244265
#     268982
#     285387
# 
# Disc length: 4206
# 
# Revision: 1
# Processed by: cddbd v1.5.2PL0 Copyright (c) Steve Scherf et al.
# Submitted via: fre:ac v1.0.17
# 
DISCID=cc106c0e
DTITLE=Various Artist - Garden State Blues
DYEAR=1996
DGENRE=Blues
TTITLE0=Rhett Tyler and Earl Warning - Walk Dat Walk
TTITLE1=Sonny Kenn Band - Fade To Black
TTITLE2=B. B. And The Stingers - I Ain´t Perfect But I´m Close
TTITLE3=Johnny Charles - You Move Me
TTITLE4=John Bloys and The Boogie Stew - I´m Free
TTITLE5=Rhett Tyler  Earl Warning -  Sam
TTITLE6=Nasty Ned and he famous Chilli Dog - Just Like Life
TTITLE7=Mike Dugan and The Blues Mission - Blue Eternity
TTITLE8=Bluesmann Whillie and The South Street Runners - The Blues Was Born In The U.S.A.
TTITLE9=John Buschnell - One Night Ain´t Enough
TTITLE10=John Buschnell - Kitchen Blues
TTITLE11=Sonny Kenn Band - Homicide Blues
TTITLE12=Johnny Charles - Texas Blues
TTITLE13=Various Artist - Billy Hector - Someday Baby
EXTD=Volume 1
EXTT0=
EXTT1=
EXTT2=
EXTT3=
EXTT4=
EXTT5=
EXTT6=
EXTT7=
EXTT8=
EXTT9=
EXTT10=
EXTT11=
EXTT12=
EXTT13=
PLAYORDER=
